<svg width="23" height="24" viewBox="0 0 23 24" fill="none" xmlns="http://www.w3.org/2000/svg">
<path d="M19.167 12.8988V10.7586H17.5003V13.2414C17.5004 13.4609 17.5882 13.6713 17.7445 13.8265L20.0003 16.0668V17.3793H1.6667V16.0668L3.92257 13.8265C4.07886 13.6713 4.16669 13.4609 4.16674 13.2414V9.93103C4.16442 8.76811 4.47116 7.62516 5.05599 6.61764C5.64083 5.61012 6.48303 4.77371 7.49754 4.19289C8.51206 3.61206 9.66295 3.3074 10.834 3.30967C12.005 3.31193 13.1547 3.62105 14.1669 4.20579V2.35614C13.3736 2.00733 12.5299 1.78501 11.6669 1.69738V0H10.0002V1.69655C7.94562 1.90422 6.04157 2.86106 4.65622 4.38205C3.27087 5.90305 2.50263 7.88014 2.50004 9.93103V12.8988L0.244171 15.139C0.087877 15.2942 4.71987e-05 15.5047 0 15.7241V18.2069C0 18.4264 0.0877989 18.6369 0.244082 18.7921C0.400365 18.9473 0.61233 19.0345 0.833348 19.0345H6.66678V19.8621C6.66678 20.9595 7.10578 22.012 7.88719 22.788C8.66861 23.564 9.72843 24 10.8335 24C11.9386 24 12.9984 23.564 13.7799 22.788C14.5613 22.012 15.0003 20.9595 15.0003 19.8621V19.0345H20.8337C21.0547 19.0345 21.2667 18.9473 21.423 18.7921C21.5792 18.6369 21.667 18.4264 21.667 18.2069V15.7241C21.667 15.5047 21.5792 15.2942 21.4229 15.139L19.167 12.8988ZM13.3336 19.8621C13.3336 20.5205 13.0702 21.152 12.6013 21.6176C12.1325 22.0833 11.4966 22.3448 10.8335 22.3448C10.1705 22.3448 9.53457 22.0833 9.06572 21.6176C8.59687 21.152 8.33348 20.5205 8.33348 19.8621V19.0345H13.3336V19.8621Z" fill="#3A4736"/>
<path d="M19.1664 9.1036C21.0074 9.1036 22.4998 7.62151 22.4998 5.79325C22.4998 3.965 21.0074 2.48291 19.1664 2.48291C17.3254 2.48291 15.833 3.965 15.833 5.79325C15.833 7.62151 17.3254 9.1036 19.1664 9.1036Z" fill="#E09A78"/>
</svg>
