<svg width="24" height="24" viewBox="0 0 24 24" fill="none" xmlns="http://www.w3.org/2000/svg">
<path d="M18.125 8C19.7473 8 21.0625 6.65685 21.0625 5C21.0625 3.34315 19.7473 2 18.125 2C16.5027 2 15.1875 3.34315 15.1875 5C15.1875 6.65685 16.5027 8 18.125 8Z" stroke="#EDE1DE" stroke-width="1.9" stroke-linecap="round" stroke-linejoin="round"/>
<path d="M6.375 15C7.99734 15 9.3125 13.6569 9.3125 12C9.3125 10.3431 7.99734 9 6.375 9C4.75266 9 3.4375 10.3431 3.4375 12C3.4375 13.6569 4.75266 15 6.375 15Z" stroke="#EDE1DE" stroke-width="1.9" stroke-linecap="round" stroke-linejoin="round"/>
<path d="M18.125 22C19.7473 22 21.0625 20.6569 21.0625 19C21.0625 17.3431 19.7473 16 18.125 16C16.5027 16 15.1875 17.3431 15.1875 19C15.1875 20.6569 16.5027 22 18.125 22Z" stroke="#EDE1DE" stroke-width="1.9" stroke-linecap="round" stroke-linejoin="round"/>
<path d="M8.91113 13.51L15.5988 17.49" stroke="#EDE1DE" stroke-width="1.9" stroke-linecap="round" stroke-linejoin="round"/>
<path d="M15.589 6.51001L8.91113 10.49" stroke="#EDE1DE" stroke-width="1.9" stroke-linecap="round" stroke-linejoin="round"/>
</svg>
