<svg width="24" height="24" viewBox="0 0 24 24" fill="none" xmlns="http://www.w3.org/2000/svg">
<path d="M23.197 19.2132L19.2273 15.1532L16.1739 13.863C17.1906 12.3843 17.7353 10.6203 17.7333 8.81258C17.7333 3.9533 13.8679 0 9.11665 0C4.3654 0 0.5 3.9533 0.5 8.81258C0.5 13.6719 4.3654 17.6252 9.11665 17.6252C10.8995 17.6272 12.6386 17.0605 14.0917 16.004L15.35 19.1185L19.3195 23.1786C19.5741 23.439 19.8764 23.6456 20.209 23.7865C20.5416 23.9274 20.8982 24 21.2582 24C21.6182 24 21.9748 23.9275 22.3074 23.7866C22.6401 23.6457 22.9423 23.4391 23.1969 23.1788C23.4515 22.9184 23.6535 22.6093 23.7913 22.2691C23.9291 21.9289 24 21.5643 24 21.196C24 20.8278 23.9291 20.4632 23.7913 20.123C23.6536 19.7827 23.4516 19.4736 23.197 19.2132ZM2.06666 8.81258C2.06666 4.83691 5.22936 1.60229 9.11665 1.60229C13.0039 1.60229 16.1666 4.83691 16.1666 8.81258C16.1666 12.7883 13.0039 16.0229 9.11665 16.0229C5.22936 16.0229 2.06666 12.7883 2.06666 8.81258ZM22.0892 22.0457C21.8686 22.2707 21.5698 22.3971 21.2583 22.3971C20.9468 22.3971 20.648 22.2707 20.4274 22.0457L16.6786 18.2116L15.5088 15.3157L18.3404 16.5121L22.0893 20.3462C22.3093 20.5718 22.4328 20.8774 22.4328 21.196C22.4328 21.5146 22.3092 21.8201 22.0892 22.0457Z" fill="#EDE1DE"/>
</svg>
